<svg width="120" height="26" viewBox="0 0 120 26" fill="none" xmlns="http://www.w3.org/2000/svg">
<g clip-path="url(#clip0_15_2236)">
<path d="M23.9759 0.458008H31.3105C39.1062 0.458008 44.2614 4.16177 44.2614 12.9842C44.2614 21.8067 39.1062 25.8017 31.6877 25.8017H23.9759V0.458008ZM30.9333 20.9328C35.0407 20.9328 37.9746 19.0601 37.9746 13.0258C37.9746 6.99161 35.0407 5.327 30.9333 5.327H30.0951V20.9328H30.9333Z" fill="white"/>
<path d="M48.9975 0.458008H55.1586V20.6831H65.0918V25.8017H49.0394V0.458008H48.9975Z" fill="white"/>
<path d="M69.4926 0.458008H76.1148L80.1803 11.4028C80.6832 12.8594 81.1024 14.4824 81.6053 16.0221H81.773C82.2759 14.4408 82.695 12.8594 83.198 11.4028L87.0958 0.458008H93.7599V25.8017H88.1855V17.1458C88.1855 14.6072 88.6466 10.8618 88.9819 8.36492H88.8561L86.7186 14.4408L83.2818 23.721H79.9288L76.4501 14.4408L74.3964 8.36492H74.2706C74.564 10.8618 75.067 14.6488 75.067 17.1458V25.8434H69.5765V0.458008H69.4926Z" fill="white"/>
<path d="M97.951 22.6389L101.43 18.4357C103.232 19.9755 105.621 21.0159 107.633 21.0159C109.896 21.0159 110.944 20.1836 110.944 18.8102C110.944 17.3537 109.519 16.8543 107.339 15.9388L104.07 14.5655C101.388 13.5251 98.8731 11.2779 98.8731 7.61572C98.8731 3.37095 102.729 -0.0415039 108.136 -0.0415039C111.07 -0.0415039 114.213 1.08211 116.434 3.28772L113.375 7.11633C111.698 5.86787 110.106 5.16041 108.136 5.16041C106.25 5.16041 105.076 5.90949 105.076 7.2828C105.076 8.69772 106.669 9.23872 108.974 10.1126L112.159 11.3611C115.303 12.6096 117.189 14.7319 117.189 18.3109C117.189 22.5556 113.626 26.2594 107.465 26.2594C104.154 26.301 100.592 25.0942 97.951 22.6389Z" fill="white"/>
<path d="M14.1245 20.9744H13.2862C9.1788 20.9744 6.24494 19.3098 6.24494 13.2755C6.24494 7.24131 9.1788 5.36862 13.2862 5.36862H13.9568H14.1245H20.2856V0.458008H12.5737C5.1133 0.458008 0 4.45308 0 13.2755C0 22.098 5.15522 25.8017 12.9509 25.8017H20.2856V11.1948H14.1245V20.9744Z" fill="white"/>
<path d="M20.2856 10.6953H10.2266V15.6892H20.2856V10.6953Z" fill="white"/>
</g>
<defs>
<clipPath id="clip0_15_2236">
<rect width="120" height="25.8461" fill="white"/>
</clipPath>
</defs>
</svg>
