<svg width="304" height="84" viewBox="0 0 304 84" fill="none" xmlns="http://www.w3.org/2000/svg">
<path d="M6.224 80.208C5.18933 80.208 4.272 79.968 3.472 79.488C2.68267 79.008 2.05867 78.3147 1.6 77.408C1.152 76.5013 0.928 75.4133 0.928 74.144C0.928 73.1947 1.06133 72.3467 1.328 71.6C1.59467 70.8427 1.968 70.2027 2.448 69.68C2.93867 69.1573 3.50933 68.7573 4.16 68.48C4.81067 68.2027 5.52533 68.064 6.304 68.064C7.12533 68.064 7.808 68.2187 8.352 68.528C8.896 68.8267 9.33867 69.152 9.68 69.504L8.88 70.464C8.58133 70.1547 8.22933 69.8933 7.824 69.68C7.42933 69.4667 6.93867 69.36 6.352 69.36C5.56267 69.36 4.87467 69.552 4.288 69.936C3.70133 70.32 3.248 70.8693 2.928 71.584C2.608 72.288 2.448 73.1253 2.448 74.096C2.448 75.088 2.59733 75.9467 2.896 76.672C3.20533 77.3867 3.65333 77.9413 4.24 78.336C4.82667 78.72 5.536 78.912 6.368 78.912C6.784 78.912 7.17867 78.8533 7.552 78.736C7.936 78.608 8.24533 78.4373 8.48 78.224V75.152H5.984V73.92H9.84V78.848C9.456 79.2427 8.94933 79.568 8.32 79.824C7.70133 80.08 7.00267 80.208 6.224 80.208ZM14.5033 80.208C14.0233 80.208 13.5913 80.112 13.2073 79.92C12.8233 79.728 12.5193 79.4507 12.2953 79.088C12.0819 78.7147 11.9753 78.2667 11.9753 77.744C11.9753 76.7947 12.3966 76.0693 13.2393 75.568C14.0926 75.056 15.4473 74.6987 17.3033 74.496C17.3033 74.1227 17.2499 73.7707 17.1433 73.44C17.0473 73.0987 16.8713 72.8267 16.6153 72.624C16.3593 72.4107 15.9913 72.304 15.5113 72.304C15.0099 72.304 14.5353 72.4053 14.0873 72.608C13.6499 72.8 13.2553 73.008 12.9033 73.232L12.3433 72.224C12.6099 72.0533 12.9193 71.8827 13.2713 71.712C13.6233 71.5307 14.0073 71.3813 14.4233 71.264C14.8393 71.1467 15.2819 71.088 15.7513 71.088C16.4553 71.088 17.0259 71.2373 17.4633 71.536C17.9113 71.8347 18.2366 72.2507 18.4393 72.784C18.6526 73.3067 18.7593 73.9307 18.7593 74.656V80H17.5593L17.4313 78.96H17.3833C16.9779 79.3013 16.5299 79.5947 16.0393 79.84C15.5593 80.0853 15.0473 80.208 14.5033 80.208ZM14.9193 79.024C15.3353 79.024 15.7299 78.928 16.1033 78.736C16.4873 78.544 16.8873 78.2613 17.3033 77.888V75.472C16.3326 75.5787 15.5593 75.7333 14.9833 75.936C14.4073 76.128 13.9966 76.368 13.7513 76.656C13.5059 76.9333 13.3832 77.264 13.3832 77.648C13.3832 78.1493 13.5326 78.5067 13.8313 78.72C14.1299 78.9227 14.4926 79.024 14.9193 79.024ZM23.7909 80.208C23.1829 80.208 22.5909 80.096 22.0149 79.872C21.4495 79.6373 20.9642 79.3493 20.5589 79.008L21.2629 78.032C21.6469 78.3413 22.0415 78.592 22.4469 78.784C22.8522 78.976 23.3162 79.072 23.8389 79.072C24.4149 79.072 24.8415 78.944 25.1189 78.688C25.4069 78.4213 25.5509 78.096 25.5509 77.712C25.5509 77.4133 25.4495 77.168 25.2469 76.976C25.0549 76.7733 24.8042 76.6027 24.4949 76.464C24.1962 76.3147 23.8869 76.1813 23.5669 76.064C23.1615 75.904 22.7615 75.728 22.3669 75.536C21.9829 75.3333 21.6629 75.0773 21.4069 74.768C21.1615 74.448 21.0389 74.0427 21.0389 73.552C21.0389 73.0827 21.1562 72.6667 21.3909 72.304C21.6255 71.9307 21.9669 71.6373 22.4149 71.424C22.8629 71.2 23.4015 71.088 24.0309 71.088C24.5642 71.088 25.0602 71.184 25.5189 71.376C25.9882 71.568 26.3882 71.8027 26.7189 72.08L26.0149 72.992C25.7162 72.7787 25.4069 72.5973 25.0869 72.448C24.7775 72.2987 24.4309 72.224 24.0469 72.224C23.4922 72.224 23.0815 72.352 22.8149 72.608C22.5589 72.8533 22.4309 73.1467 22.4309 73.488C22.4309 73.7547 22.5162 73.9787 22.6869 74.16C22.8682 74.3413 23.1029 74.496 23.3909 74.624C23.6789 74.7413 23.9829 74.864 24.3029 74.992C24.6229 75.1093 24.9375 75.2373 25.2469 75.376C25.5669 75.5147 25.8495 75.68 26.0949 75.872C26.3509 76.064 26.5535 76.304 26.7029 76.592C26.8629 76.8693 26.9429 77.216 26.9429 77.632C26.9429 78.1013 26.8202 78.5333 26.5749 78.928C26.3402 79.3227 25.9882 79.6373 25.5189 79.872C25.0602 80.096 24.4842 80.208 23.7909 80.208ZM32.7254 80V68.272H35.6534C36.8587 68.272 37.872 68.5013 38.6934 68.96C39.5147 69.408 40.1334 70.064 40.5494 70.928C40.9654 71.792 41.1734 72.848 41.1734 74.096C41.1734 75.3333 40.9654 76.3947 40.5494 77.28C40.1334 78.1653 39.52 78.8427 38.7094 79.312C37.8987 79.7707 36.9014 80 35.7174 80H32.7254ZM34.1974 78.784H35.5254C36.4427 78.784 37.2054 78.6027 37.8134 78.24C38.432 77.8667 38.8907 77.328 39.1894 76.624C39.4987 75.92 39.6534 75.0773 39.6534 74.096C39.6534 73.0933 39.4987 72.2507 39.1894 71.568C38.8907 70.8853 38.432 70.368 37.8134 70.016C37.2054 69.6533 36.4427 69.472 35.5254 69.472H34.1974V78.784ZM47.117 80.208C46.3383 80.208 45.6343 80.0267 45.005 79.664C44.3757 79.3013 43.8743 78.784 43.501 78.112C43.1383 77.4293 42.957 76.6133 42.957 75.664C42.957 74.9493 43.0637 74.3147 43.277 73.76C43.4903 73.1947 43.7783 72.7147 44.141 72.32C44.5143 71.9147 44.9357 71.6107 45.405 71.408C45.8743 71.1947 46.3543 71.088 46.845 71.088C47.5917 71.088 48.221 71.2533 48.733 71.584C49.245 71.9147 49.6343 72.3893 49.901 73.008C50.1783 73.616 50.317 74.336 50.317 75.168C50.317 75.328 50.3117 75.4773 50.301 75.616C50.2903 75.7547 50.2743 75.8827 50.253 76H44.397C44.429 76.6187 44.5677 77.1573 44.813 77.616C45.069 78.064 45.405 78.416 45.821 78.672C46.237 78.9173 46.7223 79.04 47.277 79.04C47.7037 79.04 48.0877 78.9813 48.429 78.864C48.781 78.736 49.1223 78.5653 49.453 78.352L49.965 79.328C49.5917 79.5733 49.1703 79.7813 48.701 79.952C48.2317 80.1227 47.7037 80.208 47.117 80.208ZM44.381 74.96H49.037C49.037 74.0853 48.845 73.4187 48.461 72.96C48.0877 72.4907 47.5597 72.256 46.877 72.256C46.4717 72.256 46.0877 72.3627 45.725 72.576C45.373 72.7893 45.0743 73.0933 44.829 73.488C44.5943 73.8827 44.445 74.3733 44.381 74.96ZM53.9924 80.208C53.6297 80.208 53.3364 80.1333 53.1124 79.984C52.8884 79.8347 52.723 79.616 52.6164 79.328C52.5097 79.0293 52.4564 78.6773 52.4564 78.272V67.264H53.9284V78.368C53.9284 78.592 53.9657 78.752 54.0404 78.848C54.1257 78.944 54.2217 78.992 54.3284 78.992C54.371 78.992 54.4137 78.992 54.4564 78.992C54.499 78.9813 54.5577 78.9707 54.6324 78.96L54.8404 80.08C54.7337 80.112 54.6164 80.1387 54.4884 80.16C54.3604 80.192 54.195 80.208 53.9924 80.208ZM57.0033 80V71.312H58.4753V80H57.0033ZM57.7393 69.52C57.4513 69.52 57.2166 69.4347 57.0353 69.264C56.8646 69.0827 56.7793 68.8427 56.7793 68.544C56.7793 68.256 56.8646 68.0267 57.0353 67.856C57.2166 67.6853 57.4513 67.6 57.7393 67.6C58.0273 67.6 58.2619 67.6853 58.4433 67.856C58.6246 68.0267 58.7153 68.256 58.7153 68.544C58.7153 68.8427 58.6246 69.0827 58.4433 69.264C58.2619 69.4347 58.0273 69.52 57.7393 69.52ZM63.2815 80L60.1455 71.312H61.6655L63.2975 76.256C63.4362 76.6827 63.5695 77.1147 63.6975 77.552C63.8362 77.9787 63.9695 78.4 64.0975 78.816H64.1775C64.3162 78.4 64.4495 77.9787 64.5775 77.552C64.7162 77.1147 64.8495 76.6827 64.9775 76.256L66.6255 71.312H68.0655L64.9935 80H63.2815ZM73.1639 80.208C72.3852 80.208 71.6812 80.0267 71.0519 79.664C70.4225 79.3013 69.9212 78.784 69.5479 78.112C69.1852 77.4293 69.0039 76.6133 69.0039 75.664C69.0039 74.9493 69.1105 74.3147 69.3239 73.76C69.5372 73.1947 69.8252 72.7147 70.1879 72.32C70.5612 71.9147 70.9825 71.6107 71.4519 71.408C71.9212 71.1947 72.4012 71.088 72.8919 71.088C73.6385 71.088 74.2679 71.2533 74.7799 71.584C75.2919 71.9147 75.6812 72.3893 75.9479 73.008C76.2252 73.616 76.3639 74.336 76.3639 75.168C76.3639 75.328 76.3585 75.4773 76.3479 75.616C76.3372 75.7547 76.3212 75.8827 76.2999 76H70.4439C70.4759 76.6187 70.6145 77.1573 70.8599 77.616C71.1159 78.064 71.4519 78.416 71.8679 78.672C72.2839 78.9173 72.7692 79.04 73.3239 79.04C73.7505 79.04 74.1345 78.9813 74.4759 78.864C74.8279 78.736 75.1692 78.5653 75.4999 78.352L76.0119 79.328C75.6385 79.5733 75.2172 79.7813 74.7479 79.952C74.2785 80.1227 73.7505 80.208 73.1639 80.208ZM70.4279 74.96H75.0839C75.0839 74.0853 74.8919 73.4187 74.5079 72.96C74.1345 72.4907 73.6065 72.256 72.9239 72.256C72.5185 72.256 72.1345 72.3627 71.7719 72.576C71.4199 72.7893 71.1212 73.0933 70.8759 73.488C70.6412 73.8827 70.4919 74.3733 70.4279 74.96ZM78.5033 80V71.312H79.7033L79.8473 72.896H79.8793C80.1779 72.3413 80.5406 71.904 80.9673 71.584C81.4046 71.2533 81.8633 71.088 82.3433 71.088C82.5459 71.088 82.7166 71.104 82.8553 71.136C83.0046 71.1573 83.1433 71.2053 83.2713 71.28L82.9993 72.544C82.8499 72.5013 82.7166 72.4693 82.5993 72.448C82.4819 72.416 82.3326 72.4 82.1513 72.4C81.7993 72.4 81.4206 72.5547 81.0153 72.864C80.6099 73.1627 80.2633 73.68 79.9753 74.416V80H78.5033ZM85.2566 83.744C85.054 83.744 84.8673 83.728 84.6966 83.696C84.526 83.664 84.3713 83.6213 84.2326 83.568L84.5206 82.4C84.606 82.432 84.7073 82.464 84.8246 82.496C84.942 82.528 85.0646 82.544 85.1926 82.544C85.6833 82.544 86.0833 82.3627 86.3926 82C86.7126 81.648 86.9633 81.2053 87.1446 80.672L87.3366 80.016L83.8486 71.312H85.3686L87.1286 76.128C87.2673 76.512 87.406 76.9173 87.5446 77.344C87.694 77.7707 87.8433 78.1867 87.9926 78.592H88.0726C88.19 78.1867 88.3073 77.776 88.4246 77.36C88.5526 76.9333 88.67 76.5227 88.7766 76.128L90.3446 71.312H91.7686L88.5046 80.736C88.302 81.3013 88.0566 81.808 87.7686 82.256C87.4806 82.7147 87.134 83.0773 86.7286 83.344C86.3233 83.6107 85.8326 83.744 85.2566 83.744ZM97.1785 80V68.272H98.6505V78.736H103.786V80H97.1785ZM108.848 80.208C108.144 80.208 107.483 80.032 106.864 79.68C106.245 79.3173 105.749 78.8 105.376 78.128C105.013 77.4453 104.832 76.624 104.832 75.664C104.832 74.6933 105.013 73.872 105.376 73.2C105.749 72.5173 106.245 71.9947 106.864 71.632C107.483 71.2693 108.144 71.088 108.848 71.088C109.381 71.088 109.888 71.1893 110.368 71.392C110.859 71.5947 111.291 71.8933 111.664 72.288C112.037 72.6827 112.331 73.1627 112.544 73.728C112.757 74.2933 112.864 74.9387 112.864 75.664C112.864 76.624 112.677 77.4453 112.304 78.128C111.931 78.8 111.44 79.3173 110.832 79.68C110.224 80.032 109.563 80.208 108.848 80.208ZM108.848 78.992C109.349 78.992 109.787 78.8533 110.16 78.576C110.544 78.2987 110.843 77.9093 111.056 77.408C111.269 76.9067 111.376 76.3253 111.376 75.664C111.376 74.992 111.269 74.4053 111.056 73.904C110.843 73.4027 110.544 73.0133 110.16 72.736C109.787 72.4587 109.349 72.32 108.848 72.32C108.347 72.32 107.904 72.4587 107.52 72.736C107.147 73.0133 106.853 73.4027 106.64 73.904C106.437 74.4053 106.336 74.992 106.336 75.664C106.336 76.3253 106.437 76.9067 106.64 77.408C106.853 77.9093 107.147 78.2987 107.52 78.576C107.904 78.8533 108.347 78.992 108.848 78.992ZM118.103 84C117.399 84 116.775 83.9093 116.231 83.728C115.687 83.5467 115.266 83.28 114.967 82.928C114.668 82.5867 114.519 82.1707 114.519 81.68C114.519 81.3067 114.631 80.944 114.855 80.592C115.079 80.2507 115.394 79.9573 115.799 79.712V79.632C115.575 79.4933 115.388 79.3067 115.239 79.072C115.09 78.8373 115.015 78.5493 115.015 78.208C115.015 77.8453 115.116 77.5253 115.319 77.248C115.532 76.9707 115.751 76.752 115.975 76.592V76.528C115.687 76.304 115.426 75.9893 115.191 75.584C114.956 75.1787 114.839 74.7147 114.839 74.192C114.839 73.552 114.988 73.0027 115.287 72.544C115.586 72.0747 115.98 71.7173 116.471 71.472C116.972 71.216 117.511 71.088 118.087 71.088C118.343 71.088 118.572 71.1093 118.775 71.152C118.988 71.1947 119.17 71.248 119.319 71.312H122.343V72.432H120.567C120.78 72.6347 120.951 72.8907 121.079 73.2C121.207 73.5093 121.271 73.8507 121.271 74.224C121.271 74.8427 121.127 75.3813 120.839 75.84C120.562 76.288 120.183 76.6347 119.703 76.88C119.223 77.1253 118.684 77.248 118.087 77.248C117.884 77.248 117.666 77.2213 117.431 77.168C117.207 77.1147 116.999 77.04 116.807 76.944C116.647 77.072 116.514 77.216 116.407 77.376C116.3 77.536 116.247 77.7387 116.247 77.984C116.247 78.2507 116.354 78.4747 116.567 78.656C116.78 78.8373 117.18 78.928 117.767 78.928H119.479C120.482 78.928 121.234 79.0933 121.735 79.424C122.247 79.7547 122.503 80.2773 122.503 80.992C122.503 81.5253 122.322 82.0213 121.959 82.48C121.596 82.9387 121.084 83.3067 120.423 83.584C119.772 83.8613 118.999 84 118.103 84ZM118.087 76.256C118.428 76.256 118.738 76.1707 119.015 76C119.303 75.8293 119.527 75.5893 119.687 75.28C119.858 74.9707 119.943 74.608 119.943 74.192C119.943 73.7653 119.858 73.4027 119.687 73.104C119.527 72.7947 119.308 72.56 119.031 72.4C118.754 72.24 118.439 72.16 118.087 72.16C117.756 72.16 117.447 72.24 117.159 72.4C116.882 72.56 116.658 72.7893 116.487 73.088C116.327 73.3867 116.247 73.7547 116.247 74.192C116.247 74.608 116.332 74.9707 116.503 75.28C116.674 75.5893 116.898 75.8293 117.175 76C117.452 76.1707 117.756 76.256 118.087 76.256ZM118.311 82.992C118.866 82.992 119.346 82.9067 119.751 82.736C120.167 82.5653 120.487 82.3413 120.711 82.064C120.946 81.7973 121.063 81.52 121.063 81.232C121.063 80.816 120.914 80.528 120.615 80.368C120.316 80.208 119.879 80.128 119.303 80.128H117.799C117.639 80.128 117.458 80.1173 117.255 80.096C117.063 80.0853 116.871 80.0533 116.679 80C116.37 80.2133 116.146 80.448 116.007 80.704C115.868 80.9707 115.799 81.2267 115.799 81.472C115.799 81.9307 116.018 82.2987 116.455 82.576C116.903 82.8533 117.522 82.992 118.311 82.992ZM124.206 80V71.312H125.678V80H124.206ZM124.942 69.52C124.654 69.52 124.42 69.4347 124.238 69.264C124.068 69.0827 123.982 68.8427 123.982 68.544C123.982 68.256 124.068 68.0267 124.238 67.856C124.42 67.6853 124.654 67.6 124.942 67.6C125.23 67.6 125.465 67.6853 125.646 67.856C125.828 68.0267 125.918 68.256 125.918 68.544C125.918 68.8427 125.828 69.0827 125.646 69.264C125.465 69.4347 125.23 69.52 124.942 69.52ZM130.885 80.208C130.277 80.208 129.685 80.096 129.109 79.872C128.543 79.6373 128.058 79.3493 127.653 79.008L128.357 78.032C128.741 78.3413 129.135 78.592 129.541 78.784C129.946 78.976 130.41 79.072 130.933 79.072C131.509 79.072 131.935 78.944 132.213 78.688C132.501 78.4213 132.645 78.096 132.645 77.712C132.645 77.4133 132.543 77.168 132.341 76.976C132.149 76.7733 131.898 76.6027 131.589 76.464C131.29 76.3147 130.981 76.1813 130.661 76.064C130.255 75.904 129.855 75.728 129.461 75.536C129.077 75.3333 128.757 75.0773 128.501 74.768C128.255 74.448 128.133 74.0427 128.133 73.552C128.133 73.0827 128.25 72.6667 128.485 72.304C128.719 71.9307 129.061 71.6373 129.509 71.424C129.957 71.2 130.495 71.088 131.125 71.088C131.658 71.088 132.154 71.184 132.613 71.376C133.082 71.568 133.482 71.8027 133.813 72.08L133.109 72.992C132.81 72.7787 132.501 72.5973 132.181 72.448C131.871 72.2987 131.525 72.224 131.141 72.224C130.586 72.224 130.175 72.352 129.909 72.608C129.653 72.8533 129.525 73.1467 129.525 73.488C129.525 73.7547 129.61 73.9787 129.781 74.16C129.962 74.3413 130.197 74.496 130.485 74.624C130.773 74.7413 131.077 74.864 131.397 74.992C131.717 75.1093 132.031 75.2373 132.341 75.376C132.661 75.5147 132.943 75.68 133.189 75.872C133.445 76.064 133.647 76.304 133.797 76.592C133.957 76.8693 134.037 77.216 134.037 77.632C134.037 78.1013 133.914 78.5333 133.669 78.928C133.434 79.3227 133.082 79.6373 132.613 79.872C132.154 80.096 131.578 80.208 130.885 80.208ZM138.411 80.208C137.803 80.208 137.317 80.0907 136.955 79.856C136.592 79.6107 136.331 79.2693 136.171 78.832C136.021 78.3947 135.947 77.888 135.947 77.312V72.496H134.651V71.392L136.027 71.312L136.187 68.864H137.403V71.312H139.771V72.496H137.403V77.36C137.403 77.8827 137.499 78.2933 137.691 78.592C137.893 78.88 138.245 79.024 138.747 79.024C138.907 79.024 139.077 79.0027 139.259 78.96C139.44 78.9067 139.6 78.848 139.739 78.784L140.027 79.888C139.781 79.9733 139.52 80.048 139.243 80.112C138.965 80.176 138.688 80.208 138.411 80.208ZM141.722 80V71.312H143.194V80H141.722ZM142.458 69.52C142.17 69.52 141.935 69.4347 141.754 69.264C141.583 69.0827 141.498 68.8427 141.498 68.544C141.498 68.256 141.583 68.0267 141.754 67.856C141.935 67.6853 142.17 67.6 142.458 67.6C142.746 67.6 142.981 67.6853 143.162 67.856C143.343 68.0267 143.434 68.256 143.434 68.544C143.434 68.8427 143.343 69.0827 143.162 69.264C142.981 69.4347 142.746 69.52 142.458 69.52ZM149.552 80.208C148.784 80.208 148.091 80.032 147.472 79.68C146.864 79.3173 146.379 78.8 146.016 78.128C145.664 77.4453 145.488 76.624 145.488 75.664C145.488 74.6933 145.68 73.872 146.064 73.2C146.448 72.5173 146.96 71.9947 147.6 71.632C148.24 71.2693 148.928 71.088 149.664 71.088C150.23 71.088 150.715 71.1893 151.12 71.392C151.536 71.5947 151.894 71.8347 152.192 72.112L151.456 73.072C151.211 72.848 150.944 72.6667 150.656 72.528C150.379 72.3893 150.07 72.32 149.728 72.32C149.206 72.32 148.736 72.4587 148.32 72.736C147.904 73.0133 147.579 73.4027 147.344 73.904C147.11 74.4053 146.992 74.992 146.992 75.664C146.992 76.3253 147.104 76.9067 147.328 77.408C147.563 77.9093 147.878 78.2987 148.272 78.576C148.678 78.8533 149.147 78.992 149.68 78.992C150.086 78.992 150.459 78.912 150.8 78.752C151.142 78.5813 151.451 78.3733 151.728 78.128L152.368 79.12C151.974 79.4613 151.536 79.728 151.056 79.92C150.576 80.112 150.075 80.208 149.552 80.208ZM156.557 80.208C155.949 80.208 155.357 80.096 154.781 79.872C154.215 79.6373 153.73 79.3493 153.325 79.008L154.029 78.032C154.413 78.3413 154.807 78.592 155.213 78.784C155.618 78.976 156.082 79.072 156.605 79.072C157.181 79.072 157.607 78.944 157.885 78.688C158.173 78.4213 158.317 78.096 158.317 77.712C158.317 77.4133 158.215 77.168 158.013 76.976C157.821 76.7733 157.57 76.6027 157.261 76.464C156.962 76.3147 156.653 76.1813 156.333 76.064C155.927 75.904 155.527 75.728 155.133 75.536C154.749 75.3333 154.429 75.0773 154.173 74.768C153.927 74.448 153.805 74.0427 153.805 73.552C153.805 73.0827 153.922 72.6667 154.157 72.304C154.391 71.9307 154.733 71.6373 155.181 71.424C155.629 71.2 156.167 71.088 156.797 71.088C157.33 71.088 157.826 71.184 158.285 71.376C158.754 71.568 159.154 71.8027 159.485 72.08L158.781 72.992C158.482 72.7787 158.173 72.5973 157.853 72.448C157.543 72.2987 157.197 72.224 156.812 72.224C156.258 72.224 155.847 72.352 155.581 72.608C155.325 72.8533 155.197 73.1467 155.197 73.488C155.197 73.7547 155.282 73.9787 155.453 74.16C155.634 74.3413 155.869 74.496 156.157 74.624C156.445 74.7413 156.749 74.864 157.069 74.992C157.389 75.1093 157.703 75.2373 158.013 75.376C158.333 75.5147 158.615 75.68 158.861 75.872C159.117 76.064 159.319 76.304 159.469 76.592C159.629 76.8693 159.709 77.216 159.709 77.632C159.709 78.1013 159.586 78.5333 159.341 78.928C159.106 79.3227 158.754 79.6373 158.285 79.872C157.826 80.096 157.25 80.208 156.557 80.208ZM165.491 80V68.272H167.267L169.507 74.544C169.656 74.9387 169.8 75.344 169.939 75.76C170.078 76.176 170.216 76.5867 170.355 76.992H170.419C170.568 76.5867 170.707 76.176 170.835 75.76C170.974 75.344 171.107 74.9387 171.235 74.544L173.475 68.272H175.251V80H173.875V73.504C173.875 73.1627 173.886 72.7947 173.907 72.4C173.928 71.9947 173.955 71.5893 173.987 71.184C174.019 70.768 174.046 70.3893 174.067 70.048H174.003L173.059 72.72L170.851 78.816H169.859L167.635 72.72L166.691 70.048H166.627C166.67 70.3893 166.702 70.768 166.723 71.184C166.755 71.5893 166.776 71.9947 166.787 72.4C166.808 72.7947 166.819 73.1627 166.819 73.504V80H165.491ZM181.707 80.208C181.003 80.208 180.342 80.032 179.723 79.68C179.105 79.3173 178.609 78.8 178.235 78.128C177.873 77.4453 177.691 76.624 177.691 75.664C177.691 74.6933 177.873 73.872 178.235 73.2C178.609 72.5173 179.105 71.9947 179.723 71.632C180.342 71.2693 181.003 71.088 181.707 71.088C182.241 71.088 182.747 71.1893 183.227 71.392C183.718 71.5947 184.15 71.8933 184.523 72.288C184.897 72.6827 185.19 73.1627 185.403 73.728C185.617 74.2933 185.723 74.9387 185.723 75.664C185.723 76.624 185.537 77.4453 185.163 78.128C184.79 78.8 184.299 79.3173 183.691 79.68C183.083 80.032 182.422 80.208 181.707 80.208ZM181.707 78.992C182.209 78.992 182.646 78.8533 183.019 78.576C183.403 78.2987 183.702 77.9093 183.915 77.408C184.129 76.9067 184.235 76.3253 184.235 75.664C184.235 74.992 184.129 74.4053 183.915 73.904C183.702 73.4027 183.403 73.0133 183.019 72.736C182.646 72.4587 182.209 72.32 181.707 72.32C181.206 72.32 180.763 72.4587 180.379 72.736C180.006 73.0133 179.713 73.4027 179.499 73.904C179.297 74.4053 179.195 74.992 179.195 75.664C179.195 76.3253 179.297 76.9067 179.499 77.408C179.713 77.9093 180.006 78.2987 180.379 78.576C180.763 78.8533 181.206 78.992 181.707 78.992ZM188.035 80V71.312H189.235L189.379 72.576H189.411C189.827 72.16 190.264 71.808 190.723 71.52C191.192 71.232 191.725 71.088 192.323 71.088C193.24 71.088 193.912 71.3813 194.339 71.968C194.765 72.544 194.979 73.3867 194.979 74.496V80H193.523V74.688C193.523 73.8667 193.389 73.2747 193.123 72.912C192.867 72.5493 192.451 72.368 191.875 72.368C191.427 72.368 191.027 72.48 190.674 72.704C190.323 72.928 189.933 73.2587 189.507 73.696V80H188.035ZM197.8 80V71.312H199.272V80H197.8ZM198.536 69.52C198.248 69.52 198.013 69.4347 197.832 69.264C197.661 69.0827 197.576 68.8427 197.576 68.544C197.576 68.256 197.661 68.0267 197.832 67.856C198.013 67.6853 198.248 67.6 198.536 67.6C198.824 67.6 199.059 67.6853 199.24 67.856C199.421 68.0267 199.512 68.256 199.512 68.544C199.512 68.8427 199.421 69.0827 199.24 69.264C199.059 69.4347 198.824 69.52 198.536 69.52ZM204.926 80.208C204.318 80.208 203.833 80.0907 203.47 79.856C203.108 79.6107 202.846 79.2693 202.686 78.832C202.537 78.3947 202.462 77.888 202.462 77.312V72.496H201.166V71.392L202.542 71.312L202.702 68.864H203.918V71.312H206.286V72.496H203.918V77.36C203.918 77.8827 204.014 78.2933 204.206 78.592C204.409 78.88 204.761 79.024 205.262 79.024C205.422 79.024 205.593 79.0027 205.774 78.96C205.956 78.9067 206.116 78.848 206.254 78.784L206.542 79.888C206.297 79.9733 206.036 80.048 205.758 80.112C205.481 80.176 205.204 80.208 204.926 80.208ZM211.332 80.208C210.628 80.208 209.967 80.032 209.348 79.68C208.73 79.3173 208.234 78.8 207.86 78.128C207.498 77.4453 207.316 76.624 207.316 75.664C207.316 74.6933 207.498 73.872 207.86 73.2C208.234 72.5173 208.73 71.9947 209.348 71.632C209.967 71.2693 210.628 71.088 211.332 71.088C211.866 71.088 212.372 71.1893 212.852 71.392C213.343 71.5947 213.775 71.8933 214.148 72.288C214.522 72.6827 214.815 73.1627 215.028 73.728C215.242 74.2933 215.348 74.9387 215.348 75.664C215.348 76.624 215.162 77.4453 214.788 78.128C214.415 78.8 213.924 79.3173 213.316 79.68C212.708 80.032 212.047 80.208 211.332 80.208ZM211.332 78.992C211.834 78.992 212.271 78.8533 212.644 78.576C213.028 78.2987 213.327 77.9093 213.54 77.408C213.754 76.9067 213.86 76.3253 213.86 75.664C213.86 74.992 213.754 74.4053 213.54 73.904C213.327 73.4027 213.028 73.0133 212.644 72.736C212.271 72.4587 211.834 72.32 211.332 72.32C210.831 72.32 210.388 72.4587 210.004 72.736C209.631 73.0133 209.338 73.4027 209.124 73.904C208.922 74.4053 208.82 74.992 208.82 75.664C208.82 76.3253 208.922 76.9067 209.124 77.408C209.338 77.9093 209.631 78.2987 210.004 78.576C210.388 78.8533 210.831 78.992 211.332 78.992ZM217.66 80V71.312H218.86L219.004 72.896H219.036C219.334 72.3413 219.697 71.904 220.124 71.584C220.561 71.2533 221.02 71.088 221.5 71.088C221.702 71.088 221.873 71.104 222.012 71.136C222.161 71.1573 222.3 71.2053 222.428 71.28L222.156 72.544C222.006 72.5013 221.873 72.4693 221.756 72.448C221.638 72.416 221.489 72.4 221.308 72.4C220.956 72.4 220.577 72.5547 220.172 72.864C219.766 73.1627 219.42 73.68 219.132 74.416V80H217.66ZM223.863 80V71.312H225.335V80H223.863ZM224.599 69.52C224.311 69.52 224.076 69.4347 223.895 69.264C223.724 69.0827 223.639 68.8427 223.639 68.544C223.639 68.256 223.724 68.0267 223.895 67.856C224.076 67.6853 224.311 67.6 224.599 67.6C224.887 67.6 225.121 67.6853 225.303 67.856C225.484 68.0267 225.575 68.256 225.575 68.544C225.575 68.8427 225.484 69.0827 225.303 69.264C225.121 69.4347 224.887 69.52 224.599 69.52ZM228.269 80V71.312H229.469L229.613 72.576H229.645C230.061 72.16 230.498 71.808 230.957 71.52C231.426 71.232 231.96 71.088 232.557 71.088C233.474 71.088 234.146 71.3813 234.573 71.968C235 72.544 235.213 73.3867 235.213 74.496V80H233.757V74.688C233.757 73.8667 233.624 73.2747 233.357 72.912C233.101 72.5493 232.685 72.368 232.109 72.368C231.661 72.368 231.261 72.48 230.909 72.704C230.557 72.928 230.168 73.2587 229.741 73.696V80H228.269ZM240.963 84C240.259 84 239.635 83.9093 239.091 83.728C238.547 83.5467 238.125 83.28 237.827 82.928C237.528 82.5867 237.379 82.1707 237.379 81.68C237.379 81.3067 237.491 80.944 237.715 80.592C237.939 80.2507 238.253 79.9573 238.659 79.712V79.632C238.435 79.4933 238.248 79.3067 238.099 79.072C237.949 78.8373 237.875 78.5493 237.875 78.208C237.875 77.8453 237.976 77.5253 238.179 77.248C238.392 76.9707 238.611 76.752 238.835 76.592V76.528C238.547 76.304 238.285 75.9893 238.051 75.584C237.816 75.1787 237.699 74.7147 237.699 74.192C237.699 73.552 237.848 73.0027 238.147 72.544C238.445 72.0747 238.84 71.7173 239.331 71.472C239.832 71.216 240.371 71.088 240.947 71.088C241.203 71.088 241.432 71.1093 241.635 71.152C241.848 71.1947 242.029 71.248 242.179 71.312H245.203V72.432H243.427C243.64 72.6347 243.811 72.8907 243.939 73.2C244.067 73.5093 244.131 73.8507 244.131 74.224C244.131 74.8427 243.987 75.3813 243.699 75.84C243.421 76.288 243.043 76.6347 242.563 76.88C242.083 77.1253 241.544 77.248 240.947 77.248C240.744 77.248 240.525 77.2213 240.291 77.168C240.067 77.1147 239.859 77.04 239.667 76.944C239.507 77.072 239.373 77.216 239.267 77.376C239.16 77.536 239.107 77.7387 239.107 77.984C239.107 78.2507 239.213 78.4747 239.427 78.656C239.64 78.8373 240.04 78.928 240.627 78.928H242.339C243.341 78.928 244.093 79.0933 244.595 79.424C245.107 79.7547 245.363 80.2773 245.363 80.992C245.363 81.5253 245.181 82.0213 244.819 82.48C244.456 82.9387 243.944 83.3067 243.283 83.584C242.632 83.8613 241.859 84 240.963 84ZM240.947 76.256C241.288 76.256 241.597 76.1707 241.875 76C242.163 75.8293 242.387 75.5893 242.547 75.28C242.717 74.9707 242.803 74.608 242.803 74.192C242.803 73.7653 242.717 73.4027 242.547 73.104C242.387 72.7947 242.168 72.56 241.891 72.4C241.613 72.24 241.299 72.16 240.947 72.16C240.616 72.16 240.307 72.24 240.019 72.4C239.741 72.56 239.517 72.7893 239.347 73.088C239.187 73.3867 239.107 73.7547 239.107 74.192C239.107 74.608 239.192 74.9707 239.363 75.28C239.533 75.5893 239.757 75.8293 240.035 76C240.312 76.1707 240.616 76.256 240.947 76.256ZM241.171 82.992C241.725 82.992 242.205 82.9067 242.611 82.736C243.027 82.5653 243.347 82.3413 243.571 82.064C243.805 81.7973 243.923 81.52 243.923 81.232C243.923 80.816 243.773 80.528 243.475 80.368C243.176 80.208 242.739 80.128 242.163 80.128H240.659C240.499 80.128 240.317 80.1173 240.115 80.096C239.923 80.0853 239.731 80.0533 239.539 80C239.229 80.2133 239.005 80.448 238.867 80.704C238.728 80.9707 238.659 81.2267 238.659 81.472C238.659 81.9307 238.877 82.2987 239.315 82.576C239.763 82.8533 240.381 82.992 241.171 82.992ZM254.036 80.208C253.204 80.208 252.436 80.0533 251.732 79.744C251.039 79.4347 250.441 79.0133 249.94 78.48L250.82 77.456C251.236 77.8933 251.727 78.2453 252.292 78.512C252.857 78.7787 253.444 78.912 254.052 78.912C254.831 78.912 255.433 78.736 255.86 78.384C256.297 78.032 256.516 77.5733 256.516 77.008C256.516 76.592 256.425 76.2613 256.244 76.016C256.073 75.7707 255.839 75.568 255.54 75.408C255.252 75.2373 254.921 75.072 254.548 74.912L252.868 74.176C252.505 74.016 252.137 73.8133 251.764 73.568C251.401 73.3227 251.097 73.0027 250.852 72.608C250.607 72.2133 250.484 71.7333 250.484 71.168C250.484 70.56 250.644 70.0267 250.964 69.568C251.284 69.0987 251.721 68.7307 252.276 68.464C252.831 68.1973 253.465 68.064 254.18 68.064C254.884 68.064 255.529 68.1973 256.116 68.464C256.713 68.7307 257.215 69.0773 257.62 69.504L256.852 70.448C256.489 70.1173 256.089 69.856 255.652 69.664C255.225 69.4613 254.735 69.36 254.18 69.36C253.519 69.36 252.985 69.5147 252.58 69.824C252.185 70.1227 251.988 70.5333 251.988 71.056C251.988 71.44 252.084 71.7547 252.276 72C252.479 72.2453 252.729 72.4427 253.028 72.592C253.327 72.7413 253.631 72.8853 253.94 73.024L255.604 73.744C256.052 73.936 256.457 74.1653 256.82 74.432C257.193 74.6987 257.487 75.0293 257.7 75.424C257.913 75.8187 258.02 76.304 258.02 76.88C258.02 77.4987 257.86 78.064 257.54 78.576C257.22 79.0773 256.761 79.4773 256.164 79.776C255.567 80.064 254.857 80.208 254.036 80.208ZM260.319 83.744C260.116 83.744 259.93 83.728 259.759 83.696C259.588 83.664 259.434 83.6213 259.295 83.568L259.583 82.4C259.668 82.432 259.77 82.464 259.887 82.496C260.004 82.528 260.127 82.544 260.255 82.544C260.746 82.544 261.146 82.3627 261.455 82C261.775 81.648 262.026 81.2053 262.207 80.672L262.399 80.016L258.911 71.312H260.431L262.191 76.128C262.33 76.512 262.468 76.9173 262.607 77.344C262.756 77.7707 262.906 78.1867 263.055 78.592H263.135C263.252 78.1867 263.37 77.776 263.487 77.36C263.615 76.9333 263.732 76.5227 263.839 76.128L265.407 71.312H266.831L263.567 80.736C263.364 81.3013 263.119 81.808 262.831 82.256C262.543 82.7147 262.196 83.0773 261.791 83.344C261.386 83.6107 260.895 83.744 260.319 83.744ZM270.791 80.208C270.183 80.208 269.591 80.096 269.015 79.872C268.45 79.6373 267.964 79.3493 267.559 79.008L268.263 78.032C268.647 78.3413 269.042 78.592 269.447 78.784C269.852 78.976 270.316 79.072 270.839 79.072C271.415 79.072 271.842 78.944 272.119 78.688C272.407 78.4213 272.551 78.096 272.551 77.712C272.551 77.4133 272.45 77.168 272.247 76.976C272.055 76.7733 271.804 76.6027 271.495 76.464C271.196 76.3147 270.887 76.1813 270.567 76.064C270.162 75.904 269.762 75.728 269.367 75.536C268.983 75.3333 268.663 75.0773 268.407 74.768C268.162 74.448 268.039 74.0427 268.039 73.552C268.039 73.0827 268.156 72.6667 268.391 72.304C268.626 71.9307 268.967 71.6373 269.415 71.424C269.863 71.2 270.402 71.088 271.031 71.088C271.564 71.088 272.06 71.184 272.519 71.376C272.988 71.568 273.388 71.8027 273.719 72.08L273.015 72.992C272.716 72.7787 272.407 72.5973 272.087 72.448C271.778 72.2987 271.431 72.224 271.047 72.224C270.492 72.224 270.082 72.352 269.815 72.608C269.559 72.8533 269.431 73.1467 269.431 73.488C269.431 73.7547 269.516 73.9787 269.687 74.16C269.868 74.3413 270.103 74.496 270.391 74.624C270.679 74.7413 270.983 74.864 271.303 74.992C271.623 75.1093 271.938 75.2373 272.247 75.376C272.567 75.5147 272.85 75.68 273.095 75.872C273.351 76.064 273.554 76.304 273.703 76.592C273.863 76.8693 273.943 77.216 273.943 77.632C273.943 78.1013 273.82 78.5333 273.575 78.928C273.34 79.3227 272.988 79.6373 272.519 79.872C272.06 80.096 271.484 80.208 270.791 80.208ZM278.317 80.208C277.709 80.208 277.224 80.0907 276.861 79.856C276.498 79.6107 276.237 79.2693 276.077 78.832C275.928 78.3947 275.853 77.888 275.853 77.312V72.496H274.557V71.392L275.933 71.312L276.093 68.864H277.309V71.312H279.677V72.496H277.309V77.36C277.309 77.8827 277.405 78.2933 277.597 78.592C277.8 78.88 278.152 79.024 278.653 79.024C278.813 79.024 278.984 79.0027 279.165 78.96C279.346 78.9067 279.506 78.848 279.645 78.784L279.933 79.888C279.688 79.9733 279.426 80.048 279.149 80.112C278.872 80.176 278.594 80.208 278.317 80.208ZM284.867 80.208C284.088 80.208 283.384 80.0267 282.755 79.664C282.126 79.3013 281.624 78.784 281.251 78.112C280.888 77.4293 280.707 76.6133 280.707 75.664C280.707 74.9493 280.814 74.3147 281.027 73.76C281.24 73.1947 281.528 72.7147 281.891 72.32C282.264 71.9147 282.686 71.6107 283.155 71.408C283.624 71.1947 284.104 71.088 284.595 71.088C285.342 71.088 285.971 71.2533 286.483 71.584C286.995 71.9147 287.384 72.3893 287.651 73.008C287.928 73.616 288.067 74.336 288.067 75.168C288.067 75.328 288.062 75.4773 288.051 75.616C288.04 75.7547 288.024 75.8827 288.003 76H282.147C282.179 76.6187 282.318 77.1573 282.563 77.616C282.819 78.064 283.155 78.416 283.571 78.672C283.987 78.9173 284.472 79.04 285.027 79.04C285.454 79.04 285.838 78.9813 286.179 78.864C286.531 78.736 286.872 78.5653 287.203 78.352L287.715 79.328C287.342 79.5733 286.92 79.7813 286.451 79.952C285.982 80.1227 285.454 80.208 284.867 80.208ZM282.131 74.96H286.787C286.787 74.0853 286.595 73.4187 286.211 72.96C285.838 72.4907 285.31 72.256 284.627 72.256C284.222 72.256 283.838 72.3627 283.475 72.576C283.123 72.7893 282.824 73.0933 282.579 73.488C282.344 73.8827 282.195 74.3733 282.131 74.96ZM290.206 80V71.312H291.406L291.55 72.576H291.582C291.966 72.16 292.382 71.808 292.83 71.52C293.289 71.232 293.774 71.088 294.286 71.088C294.958 71.088 295.481 71.2373 295.854 71.536C296.228 71.8347 296.505 72.24 296.686 72.752C297.145 72.2613 297.604 71.8613 298.062 71.552C298.532 71.2427 299.033 71.088 299.566 71.088C300.452 71.088 301.108 71.3813 301.534 71.968C301.972 72.544 302.19 73.3867 302.19 74.496V80H300.734V74.688C300.734 73.8667 300.601 73.2747 300.334 72.912C300.078 72.5493 299.673 72.368 299.118 72.368C298.788 72.368 298.441 72.48 298.078 72.704C297.726 72.9173 297.342 73.248 296.926 73.696V80H295.47V74.688C295.47 73.8667 295.337 73.2747 295.07 72.912C294.814 72.5493 294.409 72.368 293.854 72.368C293.524 72.368 293.177 72.48 292.814 72.704C292.452 72.9173 292.073 73.248 291.678 73.696V80H290.206Z" fill="white" fill-opacity="0.52"/>
<g clip-path="url(#clip0_37_66)">
<path d="M85.8514 0.852844H99.3912C113.782 0.852844 123.299 7.75316 123.299 24.1899C123.299 40.6266 113.782 48.0696 100.088 48.0696H85.8514V0.852844ZM98.6949 38.9984C106.277 38.9984 111.693 35.5095 111.693 24.2674C111.693 13.0253 106.277 9.92405 98.6949 9.92405H97.1475V38.9984H98.6949Z" fill="white"/>
<path d="M132.041 0.852844H143.415V38.5332H161.752V48.0696H132.119V0.852844H132.041Z" fill="white"/>
<path d="M169.875 0.852844H182.1L189.605 21.2437C190.533 23.9573 191.307 26.981 192.235 29.8497H192.545C193.473 26.9035 194.247 23.9573 195.175 21.2437L202.371 0.852844H214.673V48.0696H204.383V31.943C204.383 27.2136 205.234 20.2358 205.853 15.5839H205.62L201.675 26.9035L195.33 44.193H189.141L182.719 26.9035L178.928 15.5839H178.696C179.237 20.2358 180.166 27.2911 180.166 31.943V48.1471H170.03V0.852844H169.875Z" fill="white"/>
<path d="M222.41 42.1772L228.832 34.3465C232.158 37.2152 236.569 39.1535 240.282 39.1535C244.46 39.1535 246.395 37.6028 246.395 35.0443C246.395 32.3307 243.764 31.4003 239.741 29.6946L233.706 27.1361C228.754 25.1978 224.112 21.0111 224.112 14.1883C224.112 6.28005 231.23 -0.0775452 241.211 -0.0775452C246.627 -0.0775452 252.429 2.01581 256.53 6.12499L250.882 13.2579C247.787 10.9319 244.847 9.61391 241.211 9.61391C237.729 9.61391 235.563 11.0095 235.563 13.568C235.563 16.2041 238.503 17.212 242.758 18.8402L248.638 21.1661C254.441 23.4921 257.923 27.4462 257.923 34.1139C257.923 42.0221 251.346 48.9225 239.973 48.9225C233.861 49 227.284 46.7516 222.41 42.1772Z" fill="white"/>
<path d="M68.0737 39.076H66.5263C58.9441 39.076 53.5282 35.9747 53.5282 24.7326C53.5282 13.4905 58.9441 10.0016 66.5263 10.0016H67.7643H68.0737H79.4472V0.852844H65.211C51.4392 0.852844 42 8.29588 42 24.7326C42 41.1693 51.5165 48.0696 65.9074 48.0696H79.4472V20.856H68.0737V39.076Z" fill="white"/>
<path d="M79.4471 19.9256H60.8783V29.2294H79.4471V19.9256Z" fill="white"/>
</g>
<defs>
<clipPath id="clip0_37_66">
<rect width="216" height="49" fill="white" transform="translate(42)"/>
</clipPath>
</defs>
</svg>
